# xmcd CD database file
#
# Track frame offsets:
#	150
#	32232
#	56824
#	70480
#	80772
#	103495
#	135512
#	151012
#	159112
#	186002
#	201065
#	222951
#	248176
#	284159
#	302748
#	327160
#
# Disc length: 4608 seconds
#
# Revision: 0
# Processed by: cddbd v1.5.2PL0 Copyright (c) Steve Scherf et al.
# Submitted via: CDex 1.70beta2
#
DISCID=ed11fe10
DTITLE=Naturaleza and Meditacion - 2
DYEAR=2000
DGENRE=New Age
TTITLE0=El delfin y el hombre
TTITLE1=En un jardin
TTITLE2=Onward christian
TTITLE3=Cancion de la granja
TTITLE4=Meditacion 5
TTITLE5=Sakura
TTITLE6=La luna conoce las estrellas
TTITLE7=Waltz 15
TTITLE8=Ahora, sinceramente
TTITLE9=Dwell in me
TTITLE10=Meditacion 4
TTITLE11=Buddha
TTITLE12=Alta mar
TTITLE13=Sonidos naturales del bebe
TTITLE14=La familia
TTITLE15=Whis pering hope
EXTD=YEAR: 2000
EXTT0=
EXTT1=
EXTT2=
EXTT3=
EXTT4=
EXTT5=
EXTT6=
EXTT7=
EXTT8=
EXTT9=
EXTT10=
EXTT11=
EXTT12=
EXTT13=
EXTT14=
EXTT15=
PLAYORDER=
